<svg xmlns="http://www.w3.org/2000/svg" xmlns:xlink="http://www.w3.org/1999/xlink" width="103.576" height="103.575" viewBox="0 0 103.576 103.575">
  <defs>
    <filter id="Uni贸n_6" x="0" y="0" width="103.576" height="103.575" filterUnits="userSpaceOnUse">
      <feOffset dx="-3" dy="-3" input="SourceAlpha"/>
      <feGaussianBlur stdDeviation="3" result="blur"/>
      <feFlood flood-color="#fff" flood-opacity="0.502"/>
      <feComposite operator="in" in2="blur"/>
      <feComposite in="SourceGraphic"/>
    </filter>
  </defs>
  <g id="Icon" transform="translate(16.001 16)">
    <g transform="matrix(1, 0, 0, 1, -16, -16)" filter="url(#Uni贸n_6)">
      <path id="Uni贸n_6-2" data-name="Uni贸n 6" d="M-1391.059-4451.425V-4458h-13.157v6.578a4,4,0,0,1-4,4,4,4,0,0,1-4-4V-4458h-11.631a6.007,6.007,0,0,1-6-6v-15.158h-6.578a4,4,0,0,1-4-4,4,4,0,0,1,4-4h6.578v-9.63h-6.578a4,4,0,0,1-4-4,4,4,0,0,1,4-4h6.578v-11.63a6.007,6.007,0,0,1,6-6h11.631V-4529a4,4,0,0,1,4-4,4,4,0,0,1,4,4v6.579h13.157V-4529a4,4,0,0,1,4-4,4,4,0,0,1,4,4v6.579h11.631a6.007,6.007,0,0,1,6,6v11.63h6.579a4,4,0,0,1,4,4,4,4,0,0,1-4,4h-6.579v9.63h6.579a4,4,0,0,1,4,4,4,4,0,0,1-4,4h-6.579V-4464a6.007,6.007,0,0,1-6,6h-11.631v6.578a4,4,0,0,1-4,4A4,4,0,0,1-1391.059-4451.425Zm17.631-14.578v-48.418h-48.419V-4466h48.419Zm-34.788-9.631a4,4,0,0,1-4-4v-21.157a4,4,0,0,1,4-4h21.157a4,4,0,0,1,4,4v21.157a4,4,0,0,1-4,4Zm4-8h13.157v-13.157h-13.157Z" transform="translate(1452.43 4545)" fill="#0799b6"/>
    </g>
  </g>
</svg>
