<svg xmlns="http://www.w3.org/2000/svg" xmlns:xlink="http://www.w3.org/1999/xlink" width="98.616" height="106.968" viewBox="0 0 98.616 106.968">
  <defs>
    <filter id="Uni贸n_5" x="0" y="0" width="98.616" height="106.968" filterUnits="userSpaceOnUse">
      <feOffset dx="-3" dy="-3" input="SourceAlpha"/>
      <feGaussianBlur stdDeviation="3" result="blur"/>
      <feFlood flood-color="#fff" flood-opacity="0.502"/>
      <feComposite operator="in" in2="blur"/>
      <feComposite in="SourceGraphic"/>
    </filter>
  </defs>
  <g transform="matrix(1, 0, 0, 1, 0, 0)" filter="url(#Uni贸n_5)">
    <path id="Uni贸n_5-2" data-name="Uni贸n 5" d="M-1081.7-4230.509a12.076,12.076,0,0,1-4.129-1.465l-28.226-16.13a12.1,12.1,0,0,1-6.048-10.444v-32.28a12.067,12.067,0,0,1,1.259-5.349,4,4,0,0,1,.368-.849,4.009,4.009,0,0,1,.647-.84,12.021,12.021,0,0,1,3.76-3.408l13.128-7.5a4,4,0,0,1,2.22-1.269l12.907-7.376a12.286,12.286,0,0,1,12.053.01l28.224,16.13a12.071,12.071,0,0,1,3.76,3.4,4.005,4.005,0,0,1,.665.858,4.006,4.006,0,0,1,.375.87,12.052,12.052,0,0,1,1.249,5.323v32.279a12.1,12.1,0,0,1-6.036,10.441l-28.255,16.147a12.019,12.019,0,0,1-4.11,1.456,3.984,3.984,0,0,1-1.906.482A3.983,3.983,0,0,1-1081.7-4230.509Zm5.906-9.517,26.29-15.024a4.066,4.066,0,0,0,2.017-3.508v-30.159l-28.307,16.372Zm-36.309-18.528a4.073,4.073,0,0,0,2.031,3.511l26.278,15.016v-32.318l-28.309-16.374Zm32.308-20.72,10.182-5.889-28.134-16.224-10.2,5.829Zm18.177-10.513,9.977-5.771-26.1-14.917a4.09,4.09,0,0,0-2.049-.554,4.072,4.072,0,0,0-2.032.544l-7.876,4.5Z" transform="translate(1132.11 4331)" fill="#0799b6"/>
  </g>
</svg>
