<svg xmlns="http://www.w3.org/2000/svg" xmlns:xlink="http://www.w3.org/1999/xlink" width="89.436" height="98" viewBox="0 0 89.436 98">
  <defs>
    <filter id="Uni贸n_3" x="0" y="0" width="89.436" height="98" filterUnits="userSpaceOnUse">
      <feOffset dx="-3" dy="-3" input="SourceAlpha"/>
      <feGaussianBlur stdDeviation="3" result="blur"/>
      <feFlood flood-color="#fff" flood-opacity="0.302"/>
      <feComposite operator="in" in2="blur"/>
      <feComposite in="SourceGraphic"/>
    </filter>
  </defs>
  <g transform="matrix(1, 0, 0, 1, 0, 0)" filter="url(#Uni贸n_3)">
    <path id="Uni贸n_3-2" data-name="Uni贸n 3" d="M33.939,79.561a10.847,10.847,0,0,1-3.7-1.346L5.445,63.8A11.094,11.094,0,0,1,0,54.267V25.419a11.14,11.14,0,0,1,1.241-5.093,3.8,3.8,0,0,1,.231-.471,3.906,3.906,0,0,1,.283-.423,10.939,10.939,0,0,1,3.678-3.55L30.254,1.453A11,11,0,0,1,41.2,1.463L65.991,15.876A10.976,10.976,0,0,1,69.659,19.4a3.871,3.871,0,0,1,.552.958,11.121,11.121,0,0,1,1.225,5.055V54.262A11.088,11.088,0,0,1,66,63.795L41.182,78.225A10.782,10.782,0,0,1,37.5,79.561a3.829,3.829,0,0,1-3.56,0ZM7.648,54.262A3.407,3.407,0,0,0,9.3,57.2L31.895,70.333V41.871L7.648,27.846Zm31.894,16.07,22.6-13.142a3.405,3.405,0,0,0,1.641-2.933V27.847L39.543,41.871ZM35.718,35.247,59.969,21.222,37.34,8.066a3.156,3.156,0,0,0-3.226-.01L11.468,21.221Z" transform="translate(12 12)" fill="#0799b6"/>
  </g>
</svg>
