<svg xmlns="http://www.w3.org/2000/svg" xmlns:xlink="http://www.w3.org/1999/xlink" width="100.191" height="92.772" viewBox="0 0 100.191 92.772">
  <defs>
    <filter id="Uni贸n_4" x="0" y="0" width="100.191" height="92.772" filterUnits="userSpaceOnUse">
      <feOffset dx="-3" dy="-3" input="SourceAlpha"/>
      <feGaussianBlur stdDeviation="3" result="blur"/>
      <feFlood flood-color="#fff" flood-opacity="0.502"/>
      <feComposite operator="in" in2="blur"/>
      <feComposite in="SourceGraphic"/>
    </filter>
  </defs>
  <g id="Icon" transform="translate(16 16)">
    <g transform="matrix(1, 0, 0, 1, -16, -16)" filter="url(#Uni贸n_4)">
      <path id="Uni贸n_4-2" data-name="Uni贸n 4" d="M-784.823-3829.975h-49.262a6.679,6.679,0,0,1-6.672-6.672v-46.59a6.679,6.679,0,0,1,6.672-6.671H-818.5v-3.419a11.432,11.432,0,0,1,11.419-11.419h14.838a11.432,11.432,0,0,1,11.419,11.419v3.419h15.585a6.68,6.68,0,0,1,6.673,6.671v46.59a6.68,6.68,0,0,1-6.673,6.672Zm18.258-8v-43.935h-14.258v43.935Zm-22.257,0v-43.935H-810.5v43.935Zm-43.935,0H-818.5v-43.935h-14.258Zm43.935-51.934v-3.419a3.424,3.424,0,0,0-3.42-3.419H-807.08a3.423,3.423,0,0,0-3.419,3.419v3.419Z" transform="translate(852.76 3916.75)" fill="#0799b6"/>
    </g>
  </g>
</svg>
