<svg xmlns="http://www.w3.org/2000/svg" width="69" height="69" viewBox="0 0 69 69">
  <g id="Circle_Button_SIZE_MEDIUM_STATE_DEFAULT_STYLE_STYLE2_" data-name="Circle Button [SIZE=MEDIUM][STATE=DEFAULT][STYLE=STYLE2]" transform="translate(0 0.146)">
    <g id="Area_SIZE:MEDIUM_STATE:DEFAULT_STYLE:STYLE2_" data-name="Area [SIZE:MEDIUM][STATE:DEFAULT][STYLE:STYLE2]" transform="translate(0 -0.145)" fill="#fff" stroke="#fff" stroke-width="1" opacity="0.8">
      <rect width="69" height="69" rx="34.5" stroke="none"/>
      <rect x="0.5" y="0.5" width="68" height="68" rx="34" fill="none"/>
    </g>
    <path id="Icon_simple-whatsapp" data-name="Icon simple-whatsapp" d="M26.146,21.49c-.45-.224-2.64-1.3-3.048-1.443s-.707-.224-1.006.224-1.152,1.44-1.411,1.736-.521.314-.965.112A12.127,12.127,0,0,1,16.126,19.9a13.557,13.557,0,0,1-2.48-3.093c-.26-.448-.028-.695.194-.919.2-.2.45-.516.674-.781a3.788,3.788,0,0,0,.444-.741.821.821,0,0,0-.037-.783c-.112-.224-1-2.421-1.378-3.3s-.728-.762-1-.762c-.257-.022-.554-.022-.853-.022a1.684,1.684,0,0,0-1.191.536,4.989,4.989,0,0,0-1.561,3.7,8.743,8.743,0,0,0,1.821,4.595c.223.291,3.145,4.774,7.621,6.7,1.067.448,1.9.717,2.546.94a6.182,6.182,0,0,0,2.809.181c.858-.136,2.64-1.077,3.012-2.131a3.7,3.7,0,0,0,.269-2.129c-.111-.2-.4-.314-.852-.516M18.022,32.5H18a14.948,14.948,0,0,1-7.553-2.062l-.538-.32L4.3,31.575l1.5-5.447-.357-.56A14.82,14.82,0,0,1,28.53,7.286a14.626,14.626,0,0,1,4.347,10.445A14.838,14.838,0,0,1,18.031,32.5M30.662,5.154A18.143,18.143,0,0,0,18,0,17.766,17.766,0,0,0,2.534,26.654L0,35.862l9.466-2.468A18.024,18.024,0,0,0,18,35.556h.009A17.841,17.841,0,0,0,35.862,17.78,17.623,17.623,0,0,0,30.64,5.212" transform="translate(16.496 16.496)" fill="#0799b6"/>
  </g>
</svg>
