<svg xmlns="http://www.w3.org/2000/svg" width="62" height="62" viewBox="0 0 62 62">
  <g id="Circle_Button_SIZE_MEDIUM_STATE_DEFAULT_STYLE_STYLE2_" data-name="Circle Button [SIZE=MEDIUM][STATE=DEFAULT][STYLE=STYLE2]" transform="translate(0 0.099)">
    <g id="Area_SIZE:MEDIUM_STATE:DEFAULT_STYLE:STYLE2_" data-name="Area [SIZE:MEDIUM][STATE:DEFAULT][STYLE:STYLE2]" transform="translate(0 -0.099)" fill="#fff" stroke="#fff" stroke-width="1" opacity="0.8">
      <rect width="62" height="62" rx="31" stroke="none"/>
      <rect x="0.5" y="0.5" width="61" height="61" rx="30.5" fill="none"/>
    </g>
    <g id="Icon_feather-calendar" data-name="Icon feather-calendar" transform="translate(18.861 17.517)">
      <path id="Trazado_55" data-name="Trazado 55" d="M5.812,4.167H24.619a2.687,2.687,0,0,1,2.687,2.687V25.66a2.687,2.687,0,0,1-2.687,2.687H5.812A2.687,2.687,0,0,1,3.125,25.66V6.853A2.687,2.687,0,0,1,5.812,4.167Z" transform="translate(-3.125 -1.48)" fill="none" stroke="#0799b6" stroke-linecap="round" stroke-linejoin="round" stroke-width="2.083"/>
      <path id="Trazado_56" data-name="Trazado 56" d="M16.667,2.083V7.457" transform="translate(0.797 -2.083)" fill="none" stroke="#0799b6" stroke-linecap="round" stroke-linejoin="round" stroke-width="2.083"/>
      <path id="Trazado_57" data-name="Trazado 57" d="M8.333,2.083V7.457" transform="translate(-1.617 -2.083)" fill="none" stroke="#0799b6" stroke-linecap="round" stroke-linejoin="round" stroke-width="2.083"/>
      <path id="Trazado_58" data-name="Trazado 58" d="M3.125,10.417h24.18" transform="translate(-3.125 0.33)" fill="none" stroke="#0799b6" stroke-linecap="round" stroke-linejoin="round" stroke-width="2.083"/>
    </g>
  </g>
</svg>
